<svg xmlns="http://www.w3.org/2000/svg" viewBox="0 0 1000 1000" width="1000" height="1000">
  <path d="M 325.29 170.13 Q 319.81 174.05, 315.85 203.50 Q 311.89 232.95, 311.79 405.36 Q 311.69 577.78, 314.92 613.47 Q 318.16 649.16, 326.18 667.52 Q 334.20 685.89, 342.91 708.56 Q 351.61 731.23, 367.85 748.07 Q 384.08 764.91, 407.83 778.48 Q 431.58 792.04, 448.36 796.02 Q 465.13 800.00, 499.77 799.81 Q 534.41 799.63, 551.89 794.51 Q 569.36 789.40, 575.84 783.30 Q 582.32 777.21, 589.21 761.63 Q 596.09 746.06, 616.46 725.12 Q 636.83 704.18, 646.34 699.61 L 655.86 695.04 L 664.71 702.42 L 673.56 709.80 L 674.14 728.20 Q 674.73 746.60, 678.43 760.27 Q 682.13 773.93, 685.22 777.27 L 688.31 780.61 L 688.31 624.22 L 688.31 467.83 L 675.66 480.38 Q 663.01 492.93, 653.30 492.85 Q 643.58 492.77, 624.94 479.36 Q 606.29 465.95, 589.72 446.89 Q 573.15 427.84, 572.95 412.39 Q 572.75 396.95, 580.38 389.57 Q 588.01 382.20, 603.83 375.12 Q 619.65 368.03, 625.56 362.17 Q 631.46 356.32, 634.80 344.20 L 638.15 332.09 L 623.07 330.82 Q 607.99 329.56, 575.46 337.84 Q 542.92 346.12, 515.76 361.27 Q 488.59 376.42, 465.06 399.74 Q 441.53 423.06, 437.87 437.11 Q 434.21 451.16, 439.12 459.67 Q 444.02 468.19, 459.17 477.39 Q 474.32 486.58, 486.04 498.55 Q 497.75 510.51, 512.92 518.57 Q 528.08 526.64, 548.27 541.88 Q 568.45 557.12, 575.25 567.12 Q 582.05 577.11, 579.50 595.25 Q 576.94 613.39, 559.99 633.82 Q 543.04 654.24, 531.44 660.10 Q 519.83 665.96, 507.31 671.82 Q 494.79 677.68, 477.68 675.71 Q 460.57 673.73, 442.41 660.79 Q 424.25 647.85, 418.49 625.38 Q 412.73 602.91, 412.62 555.28 Q 412.50 507.65, 416.82 487.17 Q 421.13 466.69, 421.15 451.56 Q 421.17 436.43, 417.02 415.74 Q 412.87 395.06, 413.82 346.27 Q 414.77 297.48, 418.06 281.92 Q 421.34 266.36, 420.60 257.65 Q 419.85 248.95, 410.95 231.92 Q 402.06 214.90, 392.45 207.68 Q 382.85 200.47, 369.10 189.07 Q 355.35 177.67, 343.06 171.94 Q 330.76 166.21, 325.29 170.13 Z" fill="#1a1a1a" fill-rule="evenodd" />
</svg>