<svg xmlns="http://www.w3.org/2000/svg" viewBox="0 0 1000 1000" width="1000" height="1000">
  <path d="M 373.03 375.92 Q 352.42 384.07, 340.08 396.28 Q 327.74 408.49, 313.42 419.15 L 299.09 429.82 L 299.09 611.52 L 299.09 793.22 L 314.31 796.61 Q 329.52 800.00, 354.35 797.59 Q 379.17 795.18, 389.36 789.77 L 399.55 784.36 L 398.82 775.00 Q 398.09 765.64, 393.71 743.39 Q 389.34 721.13, 389.45 641.45 Q 389.57 561.76, 395.10 541.62 Q 400.62 521.47, 409.49 512.16 Q 418.36 502.85, 430.17 500.87 Q 441.97 498.89, 448.69 500.47 Q 455.41 502.05, 461.01 508.02 Q 466.62 514.00, 469.65 525.38 Q 472.68 536.77, 473.89 573.97 Q 475.10 611.17, 481.18 644.13 Q 487.26 677.10, 499.61 699.45 Q 511.95 721.81, 533.07 741.78 Q 554.19 761.76, 578.24 775.75 Q 602.28 789.74, 615.82 793.60 Q 629.35 797.46, 655.92 795.96 Q 682.48 794.45, 691.69 787.93 L 700.91 781.41 L 697.52 770.81 Q 694.13 760.22, 687.72 756.11 Q 681.31 751.99, 661.77 748.05 Q 642.22 744.11, 623.73 727.27 Q 605.24 710.43, 599.73 700.25 Q 594.21 690.07, 588.51 664.51 Q 582.81 638.94, 577.70 618.24 Q 572.60 597.55, 572.19 552.41 Q 571.79 507.28, 573.65 495.04 Q 575.51 482.81, 572.83 471.19 Q 570.16 459.57, 548.61 441.58 Q 527.07 423.60, 490.79 420.47 Q 454.51 417.34, 438.74 412.86 Q 422.98 408.38, 415.59 401.62 Q 408.20 394.86, 400.92 381.32 L 393.64 367.77 L 373.03 375.92 Z" fill="#1a1a1a" fill-rule="evenodd" />
</svg>